M48
INCH
T01C0.0354
T02C0.0394
T03C0.0433
%
T01
X+012958Y+008687
X+011958Y+008687
X+010458Y+008062
X+010458Y+007062
X+010458Y+006062
X+010458Y+005062
X+007458Y+005062
X+007458Y+006062
X+007458Y+007062
X+007458Y+008062
X+006208Y+008687
X+005208Y+008687
T02
X+004708Y+004687
X+006480Y+004687
X+006480Y+007246
X+004708Y+007246
X+011458Y+007246
X+013230Y+007246
X+013230Y+004687
X+011458Y+004687
T03
X+005600Y+010903
X+007458Y+018437
X+008458Y+018437
X+009458Y+018437
X+010458Y+018437
X+012208Y+015187
T00
M30
